<svg width="213" height="128" viewBox="0 0 213 128" fill="none" xmlns="http://www.w3.org/2000/svg">
<g clip-path="url(#clip0_302_2)">
<path d="M97.175 85.469C97.8899 85.2321 98.2474 84.8045 98.2474 84.1876V83.4858C98.2474 82.4091 97.2808 81.8708 95.3476 81.8708H93.0866C92.9331 81.8708 92.8569 81.9455 92.8569 82.0936V89.2217C92.8569 89.3711 92.9331 89.4445 93.0866 89.4445H95.718C97.6512 89.4445 98.6177 88.8869 98.6177 87.7742V86.8277C98.6177 86.1516 98.1364 85.6995 97.175 85.469ZM94.0971 82.7736H95.3489C95.9283 82.7736 96.349 82.8444 96.6136 82.9848C96.8769 83.1265 97.0098 83.348 97.0098 83.6532V84.1657C97.0098 84.8122 96.4858 85.1355 95.4392 85.1355H94.0984V82.7736H94.0971ZM97.3802 87.5849C97.3802 88.2237 96.8265 88.543 95.7193 88.543H94.0971V85.9816H95.7193C96.8265 85.9816 97.3802 86.2894 97.3802 86.9062V87.5862V87.5849Z" fill="white"/>
<path d="M105.86 81.8708H105.081C104.927 81.8708 104.851 81.9455 104.851 82.0936V87.6403C104.851 88.2868 104.293 88.61 103.177 88.61C102.061 88.61 101.529 88.2868 101.529 87.6403V82.0936C101.529 81.9455 101.453 81.8708 101.299 81.8708H100.52C100.359 81.8708 100.277 81.9455 100.277 82.0936V87.8193C100.277 88.3241 100.506 88.7362 100.96 89.0556C101.416 89.375 102.154 89.5347 103.176 89.5347C104.198 89.5347 104.939 89.375 105.398 89.0556C105.857 88.7362 106.087 88.3241 106.087 87.8193V82.0936C106.087 81.9455 106.011 81.8708 105.857 81.8708H105.86Z" fill="white"/>
<path d="M112.182 85.3789L109.858 84.61C109.424 84.4697 109.206 84.2198 109.206 83.8631V83.6403C109.206 83.0093 109.721 82.6938 110.752 82.6938C111.783 82.6938 112.298 83.0093 112.298 83.6403V83.9854C112.298 84.1271 112.374 84.1966 112.528 84.1966H113.282C113.435 84.1966 113.511 84.1258 113.511 83.9854V83.4961C113.511 82.9912 113.292 82.5791 112.853 82.2598C112.414 81.9404 111.71 81.7807 110.739 81.7807C109.769 81.7807 109.068 81.9404 108.638 82.2598C108.209 82.5791 107.993 82.9912 107.993 83.4961V84.131C107.993 84.4581 108.105 84.744 108.331 84.9887C108.557 85.2333 108.823 85.4085 109.13 85.5128L111.289 86.2366C111.519 86.3113 111.693 86.3744 111.813 86.4259C111.932 86.4774 112.053 86.5688 112.177 86.6989C112.301 86.829 112.363 86.9796 112.363 87.1496V87.6738C112.363 88.3048 111.813 88.6203 110.715 88.6203C109.617 88.6203 109.08 88.3048 109.08 87.6738V87.1728C109.08 87.0247 109.004 86.95 108.85 86.95H108.096C107.935 86.95 107.854 87.0247 107.854 87.1728V87.8193C107.854 88.3241 108.083 88.7362 108.543 89.0556C109.002 89.375 109.73 89.5347 110.726 89.5347C111.723 89.5347 112.448 89.375 112.905 89.0556C113.36 88.7362 113.589 88.3241 113.589 87.8193V86.8946C113.589 86.1966 113.12 85.6918 112.183 85.3802L112.182 85.3789Z" fill="white"/>
<path d="M116.371 81.8708H115.592C115.438 81.8708 115.362 81.9455 115.362 82.0936V89.2217C115.362 89.3711 115.438 89.4445 115.592 89.4445H116.371C116.525 89.4445 116.601 89.3698 116.601 89.2217V82.0936C116.601 81.9455 116.525 81.8708 116.371 81.8708Z" fill="white"/>
<path d="M124.265 81.8708H123.563C123.402 81.8708 123.321 81.9417 123.321 82.082V87.3621L122.924 86.65L119.847 81.961C119.804 81.9017 119.736 81.8721 119.643 81.8721H118.928C118.774 81.8721 118.698 81.943 118.698 82.0833V89.2346C118.698 89.3763 118.774 89.4458 118.928 89.4458H119.643C119.796 89.4458 119.872 89.375 119.872 89.2346V83.9545L119.924 84.0331C119.95 84.0923 119.977 84.1542 120.007 84.2173C120.036 84.2804 120.081 84.3615 120.141 84.4619C120.2 84.5624 120.265 84.6603 120.332 84.7569L123.333 89.3454C123.385 89.4123 123.461 89.4458 123.563 89.4458H124.265C124.419 89.4458 124.495 89.375 124.495 89.2346V82.0833C124.495 81.943 124.419 81.8721 124.265 81.8721V81.8708Z" fill="white"/>
<path d="M131.328 88.5199H127.828V85.9468H130.958C131.128 85.9468 131.213 85.876 131.213 85.7356V85.2565C131.213 85.1162 131.128 85.0453 130.958 85.0453H127.828V82.7955H131.187C131.349 82.7955 131.43 82.7247 131.43 82.5843V82.0833C131.43 81.943 131.349 81.8721 131.187 81.8721H126.819C126.665 81.8721 126.589 81.9468 126.589 82.0949V89.223C126.589 89.3724 126.665 89.4458 126.819 89.4458H131.328C131.489 89.4458 131.571 89.375 131.571 89.2346V88.7221C131.571 88.5881 131.489 88.5212 131.328 88.5212V88.5199Z" fill="white"/>
<path d="M137.293 85.3789L134.969 84.61C134.535 84.4697 134.317 84.2198 134.317 83.8631V83.6403C134.317 83.0093 134.832 82.6938 135.863 82.6938C136.894 82.6938 137.409 83.0093 137.409 83.6403V83.9854C137.409 84.1271 137.485 84.1966 137.639 84.1966H138.392C138.546 84.1966 138.622 84.1258 138.622 83.9854V83.4961C138.622 82.9912 138.403 82.5791 137.964 82.2598C137.525 81.9404 136.82 81.7807 135.85 81.7807C134.879 81.7807 134.179 81.9404 133.749 82.2598C133.319 82.5791 133.104 82.9912 133.104 83.4961V84.131C133.104 84.4581 133.216 84.744 133.442 84.9887C133.668 85.2333 133.934 85.4085 134.241 85.5128L136.4 86.2366C136.629 86.3113 136.804 86.3744 136.924 86.4259C137.042 86.4774 137.164 86.5688 137.288 86.6989C137.411 86.829 137.473 86.9796 137.473 87.1496V87.6738C137.473 88.3048 136.925 88.6203 135.825 88.6203C134.726 88.6203 134.19 88.3048 134.19 87.6738V87.1728C134.19 87.0247 134.114 86.95 133.961 86.95H133.207C133.046 86.95 132.964 87.0247 132.964 87.1728V87.8193C132.964 88.3241 133.194 88.7362 133.653 89.0556C134.113 89.375 134.841 89.5347 135.837 89.5347C136.833 89.5347 137.559 89.375 138.015 89.0556C138.471 88.7362 138.698 88.3241 138.698 87.8193V86.8946C138.698 86.1966 138.23 85.6918 137.293 85.3802V85.3789Z" fill="white"/>
<path d="M144.547 85.3789L142.222 84.61C141.788 84.4697 141.571 84.2198 141.571 83.8631V83.6403C141.571 83.0093 142.086 82.6938 143.116 82.6938C144.145 82.6938 144.662 83.0093 144.662 83.6403V83.9854C144.662 84.1271 144.738 84.1966 144.891 84.1966H145.645C145.798 84.1966 145.875 84.1258 145.875 83.9854V83.4961C145.875 82.9912 145.655 82.5791 145.216 82.2598C144.778 81.9404 144.073 81.7807 143.103 81.7807C142.132 81.7807 141.431 81.9404 141.002 82.2598C140.572 82.5791 140.356 82.9912 140.356 83.4961V84.131C140.356 84.4581 140.469 84.744 140.695 84.9887C140.92 85.2333 141.186 85.4085 141.493 85.5128L143.652 86.2366C143.882 86.3113 144.056 86.3744 144.176 86.4259C144.295 86.4774 144.416 86.5688 144.54 86.6989C144.664 86.829 144.726 86.9796 144.726 87.1496V87.6738C144.726 88.3048 144.176 88.6203 143.078 88.6203C141.98 88.6203 141.443 88.3048 141.443 87.6738V87.1728C141.443 87.0247 141.367 86.95 141.213 86.95H140.46C140.298 86.95 140.217 87.0247 140.217 87.1728V87.8193C140.217 88.3241 140.447 88.7362 140.906 89.0556C141.366 89.375 142.095 89.5347 143.09 89.5347C144.085 89.5347 144.811 89.375 145.267 89.0556C145.722 88.7362 145.949 88.3241 145.949 87.8193V86.8946C145.949 86.1966 145.481 85.6918 144.544 85.3802L144.547 85.3789Z" fill="white"/>
<path d="M157.186 85.3789L154.862 84.61C154.428 84.4697 154.21 84.2198 154.21 83.8631V83.6403C154.21 83.0093 154.725 82.6938 155.756 82.6938C156.787 82.6938 157.302 83.0093 157.302 83.6403V83.9854C157.302 84.1271 157.378 84.1966 157.532 84.1966H158.285C158.439 84.1966 158.515 84.1258 158.515 83.9854V83.4961C158.515 82.9912 158.296 82.5791 157.857 82.2598C157.418 81.9404 156.713 81.7807 155.743 81.7807C154.773 81.7807 154.072 81.9404 153.642 82.2598C153.212 82.5791 152.997 82.9912 152.997 83.4961V84.131C152.997 84.4581 153.11 84.744 153.335 84.9887C153.561 85.2333 153.827 85.4085 154.134 85.5128L156.293 86.2366C156.522 86.3113 156.697 86.3744 156.817 86.4259C156.935 86.4774 157.057 86.5688 157.181 86.6989C157.304 86.829 157.366 86.9796 157.366 87.1496V87.6738C157.366 88.3048 156.817 88.6203 155.718 88.6203C154.62 88.6203 154.083 88.3048 154.083 87.6738V87.1728C154.083 87.0247 154.007 86.95 153.854 86.95H153.1C152.939 86.95 152.857 87.0247 152.857 87.1728V87.8193C152.857 88.3241 153.087 88.7362 153.547 89.0556C154.006 89.375 154.734 89.5347 155.73 89.5347C156.726 89.5347 157.452 89.375 157.908 89.0556C158.364 88.7362 158.591 88.3241 158.591 87.8193V86.8946C158.591 86.1966 158.123 85.6918 157.186 85.3802V85.3789Z" fill="white"/>
<path d="M165.347 82.261C164.888 81.9417 164.147 81.782 163.125 81.782C162.103 81.782 161.365 81.9417 160.909 82.261C160.453 82.5804 160.226 82.9925 160.226 83.4974V87.8193C160.226 88.3241 160.453 88.7362 160.909 89.0556C161.365 89.375 162.103 89.5347 163.125 89.5347C164.147 89.5347 164.888 89.375 165.347 89.0556C165.806 88.7362 166.036 88.3241 166.036 87.8193V83.4974C166.036 82.9925 165.806 82.5804 165.347 82.261ZM164.786 87.6403C164.786 88.2868 164.232 88.61 163.125 88.61C162.018 88.61 161.477 88.2868 161.477 87.6403V83.6751C161.477 83.0286 162.027 82.7054 163.125 82.7054C164.223 82.7054 164.786 83.0286 164.786 83.6751V87.6403Z" fill="white"/>
<path d="M172.512 88.5199H169.242V82.0923C169.242 81.9442 169.166 81.8695 169.012 81.8695H168.233C168.071 81.8695 167.99 81.9442 167.99 82.0923V89.2204C167.99 89.3698 168.058 89.4432 168.194 89.4432H172.511C172.672 89.4432 172.753 89.3724 172.753 89.232V88.7195C172.753 88.5855 172.672 88.5186 172.511 88.5186L172.512 88.5199Z" fill="white"/>
<path d="M179.69 81.8708H178.91C178.757 81.8708 178.68 81.9455 178.68 82.0936V87.6403C178.68 88.2868 178.123 88.61 177.007 88.61C175.89 88.61 175.359 88.2868 175.359 87.6403V82.0936C175.359 81.9455 175.283 81.8708 175.129 81.8708H174.35C174.188 81.8708 174.107 81.9455 174.107 82.0936V87.8193C174.107 88.3241 174.334 88.7362 174.79 89.0556C175.245 89.375 175.983 89.5347 177.005 89.5347C178.027 89.5347 178.768 89.375 179.228 89.0556C179.687 88.7362 179.917 88.3241 179.917 87.8193V82.0936C179.917 81.9455 179.841 81.8708 179.687 81.8708H179.69Z" fill="white"/>
<path d="M186.663 81.8708H181.325C181.163 81.8708 181.082 81.9417 181.082 82.082V82.583C181.082 82.7247 181.163 82.7942 181.325 82.7942H183.369V89.2204C183.369 89.3698 183.445 89.4432 183.599 89.4432H184.391C184.544 89.4432 184.621 89.3685 184.621 89.2204V82.7942H186.665C186.826 82.7942 186.907 82.7234 186.907 82.583V82.082C186.907 81.9417 186.826 81.8708 186.665 81.8708H186.663Z" fill="white"/>
<path d="M189.167 81.8708H188.388C188.234 81.8708 188.158 81.9455 188.158 82.0936V89.2217C188.158 89.3711 188.234 89.4445 188.388 89.4445H189.167C189.321 89.4445 189.397 89.3698 189.397 89.2217V82.0936C189.397 81.9455 189.321 81.8708 189.167 81.8708Z" fill="white"/>
<path d="M196.473 82.261C196.013 81.9417 195.272 81.782 194.25 81.782C193.228 81.782 192.49 81.9417 192.035 82.261C191.579 82.5804 191.351 82.9925 191.351 83.4974V87.8193C191.351 88.3241 191.578 88.7362 192.035 89.0556C192.49 89.375 193.228 89.5347 194.25 89.5347C195.272 89.5347 196.013 89.375 196.473 89.0556C196.932 88.7362 197.162 88.3241 197.162 87.8193V83.4974C197.162 82.9925 196.932 82.5804 196.473 82.261ZM195.911 87.6403C195.911 88.2868 195.358 88.61 194.25 88.61C193.143 88.61 192.602 88.2868 192.602 87.6403V83.6751C192.602 83.0286 193.152 82.7054 194.25 82.7054C195.349 82.7054 195.911 83.0286 195.911 83.6751V87.6403Z" fill="white"/>
<path d="M204.685 81.8708H203.983C203.822 81.8708 203.741 81.9417 203.741 82.082V87.3621L203.345 86.65L200.267 81.961C200.224 81.9017 200.156 81.8721 200.063 81.8721H199.348C199.194 81.8721 199.118 81.943 199.118 82.0833V89.2346C199.118 89.3763 199.194 89.4458 199.348 89.4458H200.063C200.216 89.4458 200.293 89.375 200.293 89.2346V83.9545L200.344 84.0331C200.37 84.0923 200.397 84.1542 200.427 84.2173C200.456 84.2804 200.502 84.3615 200.561 84.4619C200.62 84.5624 200.685 84.6603 200.752 84.7569L203.754 89.3454C203.805 89.4123 203.881 89.4458 203.983 89.4458H204.685C204.839 89.4458 204.915 89.375 204.915 89.2346V82.0833C204.915 81.943 204.839 81.8721 204.685 81.8721V81.8708Z" fill="white"/>
<path d="M211.084 85.3789L208.76 84.61C208.326 84.4697 208.108 84.2198 208.108 83.8631V83.6403C208.108 83.0093 208.623 82.6938 209.654 82.6938C210.685 82.6938 211.2 83.0093 211.2 83.6403V83.9854C211.2 84.1271 211.276 84.1966 211.43 84.1966H212.183C212.337 84.1966 212.413 84.1258 212.413 83.9854V83.4961C212.413 82.9912 212.194 82.5791 211.755 82.2598C211.316 81.9404 210.611 81.7807 209.641 81.7807C208.67 81.7807 207.97 81.9404 207.54 82.2598C207.11 82.5791 206.895 82.9912 206.895 83.4961V84.131C206.895 84.4581 207.008 84.744 207.233 84.9887C207.459 85.2333 207.725 85.4085 208.032 85.5128L210.191 86.2366C210.42 86.3113 210.595 86.3744 210.715 86.4259C210.833 86.4774 210.955 86.5688 211.079 86.6989C211.202 86.829 211.264 86.9796 211.264 87.1496V87.6738C211.264 88.3048 210.715 88.6203 209.616 88.6203C208.518 88.6203 207.981 88.3048 207.981 87.6738V87.1728C207.981 87.0247 207.905 86.95 207.752 86.95H206.998C206.837 86.95 206.755 87.0247 206.755 87.1728V87.8193C206.755 88.3241 206.985 88.7362 207.444 89.0556C207.904 89.375 208.632 89.5347 209.628 89.5347C210.624 89.5347 211.35 89.375 211.806 89.0556C212.262 88.7362 212.489 88.3241 212.489 87.8193V86.8946C212.489 86.1966 212.021 85.6918 211.084 85.3802V85.3789Z" fill="white"/>
<path d="M140.718 67.3584H127.753V39.674C127.753 38.4441 126.962 37.6483 125.737 37.6483H122.403C121.145 37.6483 120.332 38.4428 120.332 39.674V71.5232C120.332 72.7531 121.08 73.5489 122.239 73.5489H140.719C141.977 73.5489 142.79 72.7737 142.79 71.5734V69.2849C142.79 68.1143 141.977 67.3584 140.719 67.3584H140.718Z" fill="white"/>
<path d="M93.0878 38.0513C92.8943 38.2857 92.8 38.6553 92.8 39.1795V72.0203C92.8 72.5444 92.8943 72.914 93.0878 73.1484C93.2879 73.3905 93.6415 73.509 94.1693 73.509H98.6641C99.1919 73.509 99.5455 73.3905 99.7455 73.1484C99.9391 72.9127 100.033 72.5444 100.033 72.0203V37.6908H94.1706C93.6427 37.6908 93.2892 37.8092 93.0891 38.0513H93.0878Z" fill="white"/>
<path d="M114.141 37.9831C113.911 37.7899 113.553 37.692 113.076 37.692H100.601V43.8066H113.076C114.006 43.8066 114.497 43.3095 114.497 42.3707V39.0765C114.497 38.5446 114.381 38.1866 114.141 37.9844V37.9831Z" fill="white"/>
<path d="M112.198 52.0191H100.6V58.1865H112.198C113.127 58.1865 113.618 57.6894 113.618 56.7505V53.4035C113.618 52.8742 113.511 52.5188 113.292 52.3153C113.075 52.117 112.718 52.0204 112.198 52.0204V52.0191Z" fill="white"/>
<path d="M212.631 71.2978L201.076 55.5271L212.334 39.9638L212.344 39.9483C212.704 39.4151 212.803 38.9103 212.636 38.4467C212.503 38.081 212.143 37.6444 211.182 37.6444H206.868C205.913 37.6444 205.04 38.1994 204.274 39.2915L196.94 49.7061L189.173 39.2851C188.406 38.1956 187.535 37.6444 186.583 37.6444H181.739C180.828 37.6444 180.423 38.0385 180.243 38.3694C180.057 38.7146 179.955 39.2735 180.521 39.9779L191.767 55.3211L180.137 71.2978C179.655 71.9276 179.732 72.4581 179.883 72.7917C180.039 73.1407 180.421 73.5554 181.359 73.5554H185.597C186.496 73.5554 187.34 73.0286 188.113 71.9829L195.973 61.0686L204.052 71.9894C204.82 73.0299 205.663 73.5566 206.563 73.5566H211.408C212.343 73.5566 212.726 73.142 212.884 72.793C213.034 72.4581 213.11 71.9276 212.63 71.2991L212.631 71.2978Z" fill="white"/>
<path d="M149.834 38.0462C149.618 38.2806 149.514 38.6515 149.514 39.1795V72.0203C149.514 72.547 149.618 72.9179 149.834 73.1523C150.052 73.3918 150.439 73.5077 151.018 73.5077H157.508V37.6908H151.018C150.44 37.6908 150.052 37.8067 149.835 38.0462H149.834Z" fill="white"/>
<path d="M172.179 42.3694V39.0752C172.179 38.5472 172.046 38.1788 171.784 37.9792C171.532 37.7886 171.14 37.692 170.617 37.692H158.167V43.8066H170.617C171.639 43.8066 172.179 43.3095 172.179 42.3707V42.3694Z" fill="white"/>
<path d="M171.263 56.5406V53.4035C171.263 52.8755 171.13 52.5072 170.868 52.3076C170.612 52.1144 170.212 52.0204 169.643 52.0204H158.167V57.925H169.643C170.981 57.925 171.263 57.173 171.263 56.5406Z" fill="white"/>
<path d="M172.39 67.6855C172.154 67.4897 171.761 67.3944 171.19 67.3944H158.167V73.509H171.19C172.212 73.509 172.752 73.0119 172.752 72.0731V68.7788C172.752 68.247 172.633 67.8889 172.39 67.6855Z" fill="white"/>
<path d="M34.5313 76.1104C28.8002 76.0319 23.0703 75.9044 17.3392 75.8902C11.5229 75.876 7.36491 73.5502 5.87696 68.641C4.30125 63.4408 5.45238 58.9038 9.23097 54.9154C24.1685 39.1511 38.9525 23.2143 53.8165 7.36765C58.8637 1.98712 65.7098 1.65357 69.8097 6.49837C74.3884 11.9085 73.9561 18.5537 68.6005 24.2755C60.2045 33.2478 51.7814 42.1891 43.379 51.1537C42.6047 51.9792 41.8962 52.8768 40.9851 53.9431C47.5886 54.0332 53.7959 54.1015 60.0032 54.2071C64.5806 54.2857 66.8958 57.6984 70.2446 61.7537C73.3354 65.4975 70.8228 71.3274 67.3578 74.8239C62.6784 79.5438 57.9345 84.1851 52.5402 89.5321C58.0455 95.4522 62.841 100.569 67.5965 105.732C74.0013 112.685 72.5998 122.182 64.6671 125.771C60.651 127.589 56.3188 126.576 53.0113 122.882C45.596 114.597 38.2157 106.274 30.8456 97.9403C26.3534 92.8599 26.4076 86.3216 30.9798 81.1638C32.2652 79.7137 33.6847 78.4079 35.0436 77.0351C34.8733 76.7273 34.7016 76.4195 34.5313 76.1117V76.1104Z" fill="#E5E5E4"/>
<path d="M24.5312 87.093L58.1295 52.9412C59.2574 51.795 61.0873 51.795 62.2152 52.9412L73.9446 64.8638C75.0725 66.01 75.0725 67.8696 73.9446 69.0171L40.3463 103.169C39.2184 104.315 37.3885 104.315 36.2606 103.169L24.5312 91.2462C23.4033 90.1 23.4033 88.2404 24.5312 87.093Z" fill="white"/>
<path d="M62.1559 127.398C68.2946 127.398 73.271 122.34 73.271 116.1C73.271 109.86 68.2946 104.802 62.1559 104.802C56.0172 104.802 51.0408 109.86 51.0408 116.1C51.0408 122.34 56.0172 127.398 62.1559 127.398Z" fill="white"/>
<path d="M76.137 16.9212L16.6475 77.391C15.5376 78.5178 13.74 78.5178 12.6301 77.391L0.832374 65.3987C-0.277458 64.2719 -0.277458 62.4432 0.832374 61.3163L60.3232 0.846554C61.4331 -0.280292 63.2307 -0.280292 64.3406 0.846554L76.1383 12.8388C77.2482 13.9656 77.2482 15.7943 76.1383 16.9212H76.137Z" fill="white"/>
</g>
<defs>
<clipPath id="clip0_302_2">
<rect width="213" height="127.402" fill="white"/>
</clipPath>
</defs>
</svg>
